<?xml version="1.0" standalone="no"?>
<!DOCTYPE svg PUBLIC "-//W3C//DTD SVG 20010904//EN"
 "http://www.w3.org/TR/2001/REC-SVG-20010904/DTD/svg10.dtd">
<svg version="1.0" xmlns="http://www.w3.org/2000/svg"
 width="400.000000pt" height="400.000000pt" viewBox="0 0 400.000000 400.000000"
 preserveAspectRatio="xMidYMid meet">
<metadata>
Created by potrace 1.14, written by Peter Selinger 2001-2017
</metadata>
<g transform="translate(0.000000,400.000000) scale(0.100000,-0.100000)"
fill="#000000" stroke="none">
<path d="M1075 3811 c-64 -35 -331 -174 -462 -240 l-102 -52 -55 -174 c-31
-95 -56 -178 -56 -183 0 -6 174 -67 388 -137 213 -69 397 -130 410 -135 54
-23 51 -30 151 318 52 180 104 359 116 397 42 136 59 114 -138 178 -96 32
-180 57 -188 56 -8 0 -36 -13 -64 -28z m45 -142 c-7 -72 -15 -128 -19 -127
-82 40 -251 129 -251 133 0 11 275 142 279 133 2 -5 -2 -68 -9 -139z m135 19
l45 -56 -82 -45 c-46 -24 -86 -41 -89 -38 -4 5 13 241 20 261 2 5 36 -34 106
-122z m77 80 c70 -23 128 -46 128 -50 0 -4 -33 -24 -72 -44 l-73 -35 -25 29
c-14 16 -47 55 -73 86 -36 42 -44 56 -31 56 10 0 76 -19 146 -42z m143 -80
c-5 -14 -107 -365 -161 -553 -19 -65 -37 -122 -41 -125 -3 -3 -2 40 1 95 10
141 45 517 48 520 13 11 136 74 145 74 7 1 10 -5 8 -11z m-676 -174 c-11 -76
-24 -142 -27 -146 -7 -7 -231 132 -232 144 0 7 273 148 277 144 2 -2 -6 -65
-18 -142z m276 23 c18 -14 15 -17 -53 -51 l-72 -36 -45 90 c-25 49 -45 94 -45
100 0 10 177 -75 215 -103z m-190 12 c26 -50 45 -95 43 -101 -3 -9 -130 -80
-134 -75 -1 1 7 58 17 127 10 69 18 128 19 133 1 19 13 0 55 -84z m415 39 c0
-13 -11 -149 -25 -303 -14 -153 -25 -287 -25 -297 0 -10 -3 -18 -7 -18 -6 0
-110 484 -117 544 -1 8 150 95 167 96 4 0 7 -10 7 -22z m-186 -95 c8 -29 106
-513 106 -525 0 -19 -14 1 -60 87 -23 44 -78 147 -122 228 -44 81 -77 151 -74
155 12 12 120 70 133 71 6 1 14 -7 17 -16z m-465 -73 c55 -36 101 -67 101 -70
0 -8 -159 -85 -164 -79 -2 2 -13 46 -25 96 -12 51 -24 100 -28 109 -8 23 -1
19 116 -56z m-102 -53 c12 -51 22 -98 23 -104 0 -13 -138 -88 -147 -79 -5 5 8
48 60 199 16 48 32 85 35 82 4 -3 16 -47 29 -98z m461 -54 c34 -65 91 -172
126 -237 93 -172 87 -173 -151 -41 -103 58 -199 112 -213 120 -14 8 -55 32
-92 52 -38 21 -68 41 -68 45 0 4 37 26 82 49 l81 41 160 -159 c88 -87 175
-175 194 -195 20 -21 40 -38 47 -38 6 0 -79 90 -188 199 l-199 199 29 15 c16
9 49 27 74 41 25 14 47 25 50 26 3 0 33 -53 68 -117z m-195 -197 c318 -178
318 -178 314 -183 -2 -2 -38 7 -78 21 -41 13 -186 61 -322 106 -136 44 -260
85 -275 91 -26 10 -25 11 43 49 39 22 76 39 83 40 7 0 113 -56 235 -124z"/>
<path d="M3406 3204 c-93 -34 -147 -110 -147 -206 0 -96 43 -166 125 -204 66
-31 126 -31 191 0 86 40 126 105 126 201 0 155 -151 262 -295 209z m127 -25
c43 -12 101 -59 123 -100 7 -15 14 -54 14 -86 0 -197 -255 -265 -357 -95 -27
44 -31 137 -9 180 22 42 77 89 116 100 47 14 68 14 113 1z"/>
<path d="M3410 2996 c0 -105 2 -126 15 -126 12 0 15 13 15 55 0 51 2 55 23 55
34 0 54 -20 67 -67 6 -24 17 -43 24 -43 12 0 12 7 0 46 -8 26 -19 53 -25 60
-8 9 -5 18 10 33 49 49 13 102 -74 109 l-55 4 0 -126z m117 74 c18 -36 -3 -64
-51 -68 l-36 -3 0 51 0 51 37 -3 c28 -2 41 -9 50 -28z"/>
<path d="M2546 2912 c6 -4 10 -15 9 -24 -2 -11 2 -15 13 -12 10 3 6 -2 -8 -10
-24 -15 -24 -15 -3 -16 11 0 38 -9 60 -19 21 -11 76 -37 123 -59 102 -48 203
-114 325 -210 50 -40 93 -72 98 -72 38 -1 -64 105 -206 214 -91 69 -229 149
-324 187 -70 28 -112 38 -87 21z"/>
<path d="M1127 2807 c-94 -52 -226 -156 -315 -246 -99 -101 -184 -211 -177
-229 3 -8 0 -10 -7 -6 -8 5 -9 2 -5 -10 4 -9 3 -14 -2 -11 -18 11 -23 -17 -5
-30 15 -11 16 -15 5 -29 -9 -11 -12 -34 -8 -75 2 -35 0 -64 -6 -70 -6 -6 -8
-13 -5 -17 3 -3 21 16 39 43 130 193 279 351 459 486 58 44 96 77 85 75 -18
-3 -20 3 -21 62 -1 49 2 68 15 77 28 21 8 14 -52 -20z"/>
<path d="M1781 2443 c-113 -267 -171 -418 -166 -432 4 -9 11 -133 16 -276 5
-143 13 -316 18 -385 5 -69 8 -205 7 -302 l-1 -178 208 0 c114 0 207 3 207 8
0 4 -32 83 -72 175 l-73 169 -119 -4 c-74 -2 -121 1 -123 7 -4 12 28 92 182
460 65 154 140 338 167 409 l49 128 -119 147 c-65 80 -125 147 -133 149 -10 2
-26 -24 -48 -75z"/>
<path d="M605 2260 c3 -5 8 -10 11 -10 2 0 4 5 4 10 0 6 -5 10 -11 10 -5 0 -7
-4 -4 -10z"/>
<path d="M467 2057 c-52 -105 -98 -237 -129 -365 -16 -69 -21 -133 -25 -307
-5 -245 6 -330 68 -525 25 -80 116 -285 106 -240 -2 8 2 29 10 47 16 39 16 46
2 37 -7 -4 -9 0 -5 13 3 11 -1 40 -9 64 -76 213 -94 524 -46 790 24 135 69
318 83 344 10 18 9 19 -5 6 -14 -11 -18 -11 -23 4 -4 9 -2 26 3 38 6 12 7 45
3 75 -3 28 -3 52 1 52 6 0 20 52 15 58 -2 1 -24 -39 -49 -91z"/>
<path d="M501 1944 c0 -11 3 -14 6 -6 3 7 2 16 -1 19 -3 4 -6 -2 -5 -13z"/>
<path d="M2136 1878 c-13 -29 -51 -115 -86 -192 -34 -76 -62 -149 -62 -162 0
-19 170 -354 206 -405 10 -14 11 60 8 372 -2 215 -7 402 -12 415 -14 36 -28
29 -54 -28z"/>
<path d="M2458 1323 c15 -28 15 -46 0 -37 -6 4 -9 3 -6 -2 4 -5 9 -173 12
-374 7 -401 13 -498 30 -519 8 -11 8 -13 0 -8 -7 4 -11 -2 -11 -18 0 -14 4
-25 10 -25 24 0 118 115 154 188 36 72 38 82 42 187 2 78 -2 130 -12 172 -18
69 -188 423 -213 444 -16 13 -16 12 -6 -8z"/>
<path d="M1233 1147 c-23 -44 -47 -96 -118 -262 -89 -206 -96 -229 -100 -297
l-3 -66 31 -4 c18 -1 79 -1 136 0 l103 4 -7 156 c-4 87 -9 171 -10 187 -2 17
-4 81 -5 143 -2 61 -7 112 -11 112 -4 0 -3 14 2 32 12 45 7 43 -18 -5z"/>
<path d="M2160 549 c-25 -4 -66 -8 -91 -8 -81 -2 -82 -5 -47 -171 17 -80 35
-149 42 -153 6 -4 36 -5 66 -2 99 11 91 -5 89 181 -1 90 -5 163 -8 163 -3 -1
-26 -5 -51 -10z"/>
<path d="M601 494 c9 -25 8 -26 -7 -13 -16 13 -16 12 -6 -7 6 -12 9 -24 6 -27
-18 -18 222 -313 241 -295 3 3 -25 48 -63 100 -38 51 -92 132 -121 181 -55 90
-68 106 -50 61z"/>
</g>
</svg>
